<svg id="Flat" height="511" viewBox="0 0 64 64" width="512" xmlns="http://www.w3.org/2000/svg"><g id="Stroke_copy_2" data-name="Stroke copy 2"><path d="m3 24h58v20h-58z" fill="#f9e109"/><path d="m10 26v-2h-7v20h58v-6h-39a12 12 0 0 1 -12-12z" fill="#fcbc04"/><path d="m9 44h6v17h-6z" fill="#57b7eb"/><path d="m50 44h6v17h-6z" fill="#57b7eb"/><path d="m3 24v1.2l10.86 18.8h6.93l-11.55-20z" fill="#f8664f"/><path d="m16.31 24 11.55 20h6.92l-11.54-20z" fill="#f8664f"/><path d="m30.31 24 11.55 20h6.92l-11.54-20z" fill="#f8664f"/><path d="m61 44v-3.09l-9.76-16.91h-6.93l11.55 20z" fill="#f8664f"/><path d="m10 16h4v8h-4z" fill="#57b7eb"/><circle cx="12" cy="14" fill="#f9e109" r="5"/><path d="m15 16a5 5 0 0 1 -4.69-6.69 5 5 0 1 0 6.38 6.38 5 5 0 0 1 -1.69.31z" fill="#fcbc04"/><g fill="#f9e109"><circle cx="4" cy="14" r="1"/><circle cx="20" cy="14" r="1"/><circle cx="12" cy="6" r="1"/><circle cx="6.34" cy="8.34" r="1"/><circle cx="17.66" cy="19.66" r="1"/><circle cx="6.34" cy="19.66" r="1"/><circle cx="17.66" cy="8.34" r="1"/></g><path d="m50 16h4v8h-4z" fill="#57b7eb"/><circle cx="52" cy="14" fill="#f9e109" r="5"/><path d="m55 16a5 5 0 0 1 -4.69-6.69 5 5 0 1 0 6.38 6.38 5 5 0 0 1 -1.69.31z" fill="#fcbc04"/><circle cx="44" cy="14" fill="#f9e109" r="1"/><circle cx="60" cy="14" fill="#f9e109" r="1"/><circle cx="52" cy="6" fill="#f9e109" r="1"/><circle cx="46.34" cy="8.34" fill="#f9e109" r="1"/><circle cx="57.66" cy="19.66" fill="#f9e109" r="1"/><circle cx="46.34" cy="19.66" fill="#f9e109" r="1"/><circle cx="57.66" cy="8.34" fill="#f9e109" r="1"/><path d="m54 47h2v-3h-6v17h6v-3a3 3 0 0 1 -3-3v-7a1 1 0 0 1 1-1z" fill="#4891d3"/><path d="m13 47h2v-3h-6v17h6v-3a3 3 0 0 1 -3-3v-7a1 1 0 0 1 1-1z" fill="#4891d3"/><path d="m10 26v-.68l-.76-1.32h-6.24v1.2l10.86 18.8h6.92l-4.22-7.31a12 12 0 0 1 -6.56-10.69z" fill="#cc5144"/><path d="m24.39 38 3.47 6h6.92l-3.46-6z" fill="#cc5144"/><path d="m38.39 38 3.47 6h6.92l-3.46-6z" fill="#cc5144"/><path d="m52.39 38 3.47 6h5.14v-3.09l-1.68-2.91z" fill="#cc5144"/></g></svg>