<svg id="Capa_1" enable-background="new 0 0 512 512" height="512" viewBox="0 0 512 512" width="512" xmlns="http://www.w3.org/2000/svg"><g><path d="m468.36 85.61v165.368l-75.32 88.672h-.09v-157.78h-273.9v157.78h-.09l-75.32-88.672v-165.368c0-28.45 23.06-51.51 51.51-51.51h321.7c28.451 0 51.51 23.06 51.51 51.51z" fill="#6a61b2"/><path d="m416.85 34.1h-25.647c28.448 0 51.509 23.061 51.509 51.509v175.371l25.648-10.002v-165.368c0-28.448-23.062-51.51-51.51-51.51z" fill="#514898"/><path d="m90.251 162.467 17.89-45.684c1.288-3.289 4.46-5.454 7.992-5.454h14.18c3.533 0 6.704 2.164 7.992 5.454l17.89 45.684-32.972 6z" fill="#80b6fc"/><path d="m167.48 170.53.001 51.189-44.261 10.001-44.258-10.001-.002-51.189c0-4.45 3.61-8.06 8.06-8.06h72.4c4.45 0 8.06 3.61 8.06 8.06z" fill="#9ec8fc"/><path d="m167.48 170.53.001 51.189-23.921 10.001v-61.19c0-4.45-3.61-8.06-8.06-8.06h23.92c4.45 0 8.06 3.61 8.06 8.06z" fill="#62a4fb"/><path d="m78.963 221.719h88.519v227.22h-88.519z" fill="#f4dabd"/><path d="m143.563 221.718h23.919v227.221h-23.919z" fill="#ecb880"/><path d="m178.769 162.467 17.89-45.684c1.288-3.289 4.46-5.454 7.992-5.454h14.18c3.533 0 6.704 2.164 7.992 5.454l17.89 45.684-32.972 10z" fill="#de5791"/><path d="m256 170.53v51.189l-44.26 10.001-44.259-10.001-.001-51.189c0-4.45 3.61-8.06 8.06-8.06h72.4c4.45 0 8.06 3.61 8.06 8.06z" fill="#e175a5"/><path d="m256 170.53v51.189l-23.92 10.001v-61.19c0-4.45-3.61-8.06-8.06-8.06h23.92c4.45 0 8.06 3.61 8.06 8.06z" fill="#ca59a6"/><path d="m167.482 221.719h88.519v227.22h-88.519z" fill="#f4dabd"/><path d="m232.081 221.718h23.919v227.221h-23.919z" fill="#ecb880"/><path d="m267.287 162.467 17.89-45.684c1.288-3.289 4.46-5.454 7.992-5.454h14.18c3.533 0 6.704 2.164 7.992 5.454l17.89 45.684-32.972 10z" fill="#67b59f"/><path d="m344.519 170.529-.001 51.19-44.258 10.001-44.26-10.001v-51.189c0-4.45 3.61-8.06 8.06-8.06h72.4c4.45 0 8.059 3.609 8.059 8.059z" fill="#77d1b3"/><path d="m344.519 170.529-.001 51.19-23.918 10.001v-61.19c0-4.45-3.61-8.06-8.06-8.06h23.92c4.45 0 8.059 3.609 8.059 8.059z" fill="#61aab8"/><path d="m256 221.718h88.518v227.22h-88.518z" fill="#f4dabd"/><path d="m320.599 221.718h23.92v227.221h-23.92z" fill="#ecb880"/><path d="m355.805 162.467 17.89-45.684c1.288-3.289 4.46-5.454 7.992-5.454h14.18c3.533 0 6.704 2.164 7.992 5.454l17.89 45.684-32.972 10z" fill="#e9a761"/><path d="m424.977 162.467h-72.4c-4.451 0-8.058 3.611-8.058 8.062l-.001 51.19 44.258 9.999 44.259-10v-51.191c.001-4.452-3.607-8.06-8.058-8.06z" fill="#ecb880"/><path d="m424.977 162.467h-23.919c4.451 0 8.059 3.608 8.059 8.059v61.191l23.919-10v-51.191c0-4.451-3.608-8.059-8.059-8.059z" fill="#e5936a"/><path d="m344.518 221.718h88.518v227.221h-88.518z" fill="#f4dabd"/><path d="m409.117 221.717h23.919v227.221h-23.919z" fill="#ecb880"/><path d="m278.051 57.893-16.203 15.45c-3.274 3.122-8.422 3.122-11.696 0l-16.203-15.45c-1.677-1.599-2.626-3.815-2.626-6.133v-43.286c0-4.68 3.794-8.474 8.474-8.474h32.405c4.68 0 8.474 3.794 8.474 8.474v43.286c.001 2.317-.948 4.534-2.625 6.133z" fill="#d5d9f2"/><path d="m411.757 282.361v7.487c0 13.538-10.974 24.512-24.512 24.512h-1.811c-5.463 0-10.731-1.875-15.077-5.185-27.198-20.721-68.327-33.927-114.357-33.927s-87.159 13.206-114.357 33.926c-4.346 3.311-9.614 5.185-15.077 5.185h-1.811c-13.537 0-24.512-10.974-24.512-24.512v-7.487c0-17.333-14.051-31.385-31.385-31.385l-25.218.002v209.513c0 28.449 23.062 51.51 51.509 51.51h321.702c28.448 0 51.509-23.061 51.509-51.509v-209.513l-25.219-.002c-17.333 0-31.384 14.052-31.384 31.385z" fill="#e8eef8"/><path d="m443.141 250.976c-.144 0-.286.009-.429.011v209.504c0 28.448-23.061 51.509-51.509 51.509h25.648c28.448 0 51.509-23.061 51.509-51.509v-209.513z" fill="#d5d9f2"/><path d="m306.202 361.59-30.558-6.872-15.978-26.939c-1.651-2.784-5.681-2.784-7.332 0l-15.978 26.939-30.558 6.872c-3.158.71-4.403 4.542-2.266 6.973l20.683 23.521-2.907 31.186c-.3 3.223 2.959 5.591 5.932 4.31l28.76-12.404 28.761 12.402c2.972 1.282 6.232-1.087 5.932-4.31l-2.907-31.186 20.683-23.521c2.136-2.429.891-6.261-2.267-6.971z" fill="#ecb880"/><path d="m305.503 481.254h-99.006c-4.267 0-7.726-3.459-7.726-7.726s3.459-7.726 7.726-7.726h99.006c4.268 0 7.726 3.459 7.726 7.726s-3.458 7.726-7.726 7.726z" fill="#938dc8"/></g></svg>