<svg height="512" viewBox="0 0 74 74" width="512" xmlns="http://www.w3.org/2000/svg"><g id="color_line" data-name="color line"><path d="m25.657 2.237h20.074v72.399h-20.074z" fill="#eeefee" transform="matrix(.707 .707 -.707 .707 37.633 -13.982)"/><path d="m68.39 19.938-51.2 51.19-2.23-2.23 48.96-48.96-11.96-11.96 2.23-2.24z" fill="#e1e6e9"/><g fill="#323c6b"><path d="m63.547 25.278a.5.5 0 0 1 -.354-.146l-2.559-2.559a.5.5 0 0 1 .707-.707l2.559 2.559a.5.5 0 0 1 -.354.854z"/><path d="m58.357 30.467a.5.5 0 0 1 -.357-.147l-1.619-1.62a.5.5 0 0 1 .707-.707l1.623 1.623a.5.5 0 0 1 -.354.854z"/><path d="m53.169 35.656a.5.5 0 0 1 -.354-.146l-2.559-2.558a.5.5 0 0 1 .707-.707l2.559 2.555a.5.5 0 0 1 -.354.854z"/><path d="m47.98 40.845a.5.5 0 0 1 -.354-.146l-1.626-1.624a.5.5 0 0 1 .707-.707l1.623 1.623a.5.5 0 0 1 -.354.854z"/><path d="m42.791 46.034a.5.5 0 0 1 -.354-.146l-2.557-2.559a.5.5 0 0 1 .707-.707l2.558 2.559a.5.5 0 0 1 -.354.854z"/><path d="m37.6 51.222a.5.5 0 0 1 -.354-.146l-1.623-1.623a.5.5 0 0 1 .707-.707l1.623 1.623a.5.5 0 0 1 -.354.854z"/><path d="m32.414 56.411a.5.5 0 0 1 -.354-.146l-2.56-2.558a.5.5 0 0 1 .709-.707l2.559 2.558a.5.5 0 0 1 -.354.854z"/><path d="m27.225 61.6a.5.5 0 0 1 -.354-.146l-1.623-1.623a.5.5 0 0 1 .707-.707l1.623 1.623a.5.5 0 0 1 -.354.854z"/><path d="m22.036 66.789a.5.5 0 0 1 -.354-.146l-2.559-2.559a.5.5 0 0 1 .707-.707l2.559 2.559a.5.5 0 0 1 -.354.854z"/><path d="m45.023 11.169a.5.5 0 0 1 -.354-.854l.394-.393a.5.5 0 0 1 .707.708l-.394.393a.5.5 0 0 1 -.353.146z"/><path d="m47.357 8.836a.5.5 0 0 1 -.357-.854l4.715-4.715a3.477 3.477 0 0 1 2.475-1.025.5.5 0 0 1 0 1 2.486 2.486 0 0 0 -1.768.732l-4.711 4.715a.5.5 0 0 1 -.354.147z"/><path d="m51.3 67.878a.5.5 0 0 1 -.354-.146l-6.33-6.332a.5.5 0 0 1 .707-.707l6.333 6.333a.5.5 0 0 1 -.354.854z"/><path d="m43.152 59.727a.5.5 0 0 1 -.354-.146l-.251-.25a.5.5 0 0 1 .707-.708l.251.25a.5.5 0 0 1 -.354.854z"/><path d="m17.194 71.63a.5.5 0 0 1 -.354-.146l-14.194-14.194a.5.5 0 0 1 0-.707l51.194-51.194a.5.5 0 0 1 .707 0l14.2 14.194a.5.5 0 0 1 0 .707l-51.199 51.194a.5.5 0 0 1 -.354.146zm-13.487-14.694 13.487 13.487 50.488-50.486-13.489-13.488z"/></g><path d="m30.545 8.114h16.37v61.745h-16.37z" fill="#3F51B5" transform="matrix(.707 -.707 .707 .707 -16.224 38.805)"/><path d="m11.9 5.538-6.619 6.616a3.507 3.507 0 0 0 0 4.959l5.831 5.831 11.575-11.575-5.83-5.831a3.507 3.507 0 0 0 -4.957 0z" fill="#9297ab"/><path d="m10.475 16.428h16.37v4.979h-16.37z" fill="#eeefee" transform="matrix(.707 -.707 .707 .707 -7.911 18.735)"/><path d="m26.21 14.888 40.14 40.14-2.44 2.44-40.11-40.1-.03-.04" fill="#3F5183"/><path d="m22.69 11.368-2.44 2.44-5.8-5.8a3.507 3.507 0 0 0 -4.96 0l-4.54 4.54a3.084 3.084 0 0 1 .33-.39l6.62-6.62a3.507 3.507 0 0 1 4.96 0z" fill="#84879c"/><path d="m26.21 14.888-2.44 2.44-3.49-3.49-.03-.03 2.44-2.44z" fill="#e1e6e9"/><path d="m71 71.258-4.81-1.38a5.585 5.585 0 0 1 1.37-2.17 5.972 5.972 0 0 1 2.04-1.34z" fill="#84879c"/><path d="m71 71.758a.491.491 0 0 1 -.138-.02l-4.81-1.38a.5.5 0 0 1 -.336-.64 6.076 6.076 0 0 1 1.489-2.364 6.436 6.436 0 0 1 2.212-1.454.5.5 0 0 1 .663.328l1.4 4.89a.5.5 0 0 1 -.48.638zm-4.141-2.208 3.412.979-.993-3.466a5.57 5.57 0 0 0 -1.365 1 5.2 5.2 0 0 0 -1.054 1.487z" fill="#323c6b"/><path d="m69.6 66.368a5.972 5.972 0 0 0 -2.04 1.34 5.585 5.585 0 0 0 -1.37 2.17l-11.42-3.27 11.58-11.58z" fill="#e7aa6c"/><path d="m69.6 66.368a5.972 5.972 0 0 0 -2.04 1.34 4.034 4.034 0 0 0 -.34.38l-3.1-10.83 2.23-2.23z" fill="#d09865"/><path d="m60.561 61.317a.5.5 0 0 1 -.354-.146l-40.14-40.14a.5.5 0 0 1 .707-.707l40.14 40.14a.5.5 0 0 1 -.354.854z" fill="#323c6b"/><path d="m54.772 67.105a.5.5 0 0 1 -.354-.146l-43.659-43.659a.5.5 0 0 1 0-.707l11.575-11.577a.515.515 0 0 1 .707 0l43.659 43.66a.5.5 0 0 1 0 .707l-11.574 11.576a.5.5 0 0 1 -.354.146zm-42.953-44.161 42.953 42.956 10.869-10.87-42.953-42.954z" fill="#323c6b"/><path d="m11.112 23.445a.5.5 0 0 1 -.354-.146l-5.83-5.832a4.006 4.006 0 0 1 0-5.667l6.616-6.616a4.01 4.01 0 0 1 5.666 0l5.831 5.831a.5.5 0 0 1 0 .707l-11.575 11.578a.5.5 0 0 1 -.354.145zm3.265-18.432a3 3 0 0 0 -2.126.879l-6.616 6.616a3.007 3.007 0 0 0 0 4.252l5.478 5.478 10.867-10.869-5.48-5.477a3 3 0 0 0 -2.123-.879z" fill="#323c6b"/><path d="m14.633 26.965a.5.5 0 0 1 -.354-.146l-3.52-3.519a.5.5 0 0 1 0-.707l11.575-11.577a.515.515 0 0 1 .707 0l3.521 3.521a.5.5 0 0 1 0 .707l-11.576 11.575a.5.5 0 0 1 -.353.146zm-2.813-4.021 2.813 2.813 10.867-10.867-2.813-2.813z" fill="#323c6b"/><path d="m66.19 70.378a.5.5 0 0 1 -.138-.02l-11.421-3.27a.5.5 0 0 1 -.216-.834l11.585-11.58a.5.5 0 0 1 .834.216l3.25 11.34a.5.5 0 0 1 -.3.6 5.528 5.528 0 0 0 -1.869 1.229 5.09 5.09 0 0 0 -1.249 1.976.5.5 0 0 1 -.476.343zm-10.466-4.017 10.164 2.911a6.168 6.168 0 0 1 1.318-1.917 6.452 6.452 0 0 1 1.794-1.271l-2.9-10.1z" fill="#323c6b"/><path d="m29.286 36.044 5.271 5.156a.6.6 0 1 1 -.839.858l-5.271-5.158a.6.6 0 1 1 .839-.858z" fill="#fff"/><path d="m27.246 34.048.264.259a.6.6 0 1 1 -.839.858l-.264-.259a.6.6 0 0 1 .839-.858z" fill="#fff"/></g></svg>
