<?xml version="1.0" encoding="UTF-8" standalone="no"?>
<svg
   xmlns:dc="http://purl.org/dc/elements/1.1/"
   xmlns:cc="http://creativecommons.org/ns#"
   xmlns:rdf="http://www.w3.org/1999/02/22-rdf-syntax-ns#"
   xmlns:svg="http://www.w3.org/2000/svg"
   xmlns="http://www.w3.org/2000/svg"
   xmlns:sodipodi="http://sodipodi.sourceforge.net/DTD/sodipodi-0.dtd"
   xmlns:inkscape="http://www.inkscape.org/namespaces/inkscape"
   height="650"
   viewBox="0 0 76.171875 76.171875"
   width="650"
   version="1.1"
   id="svg492"
   sodipodi:docname="Flag14.svg"
   inkscape:version="0.92.4 (5da689c313, 2019-01-14)">
  <metadata
     id="metadata498">
    <rdf:RDF>
      <cc:Work
         rdf:about="">
        <dc:format>image/svg+xml</dc:format>
        <dc:type
           rdf:resource="http://purl.org/dc/dcmitype/StillImage" />
        <dc:title></dc:title>
      </cc:Work>
    </rdf:RDF>
  </metadata>
  <defs
     id="defs496" />
  <sodipodi:namedview
     pagecolor="#ffffff"
     bordercolor="#666666"
     borderopacity="1"
     objecttolerance="10"
     gridtolerance="10"
     guidetolerance="10"
     inkscape:pageopacity="0"
     inkscape:pageshadow="2"
     inkscape:window-width="1920"
     inkscape:window-height="1058"
     id="namedview494"
     showgrid="false"
     inkscape:zoom="1.2277694"
     inkscape:cx="99.864318"
     inkscape:cy="337.26143"
     inkscape:window-x="-8"
     inkscape:window-y="-8"
     inkscape:window-maximized="1"
     inkscape:current-layer="svg492" />
  <g
     id="001---USA-Flag"
     style="fill:none"
     transform="translate(8.4174711,9.0226262)">
    <g
       id="Layer_3"
       transform="translate(0,1)">
      <path
         id="Shape"
         d="m 59,12 v 27.92 c 0.0041,0.424691 -0.260584,0.805618 -0.66,0.95 C 41.5,46.85 24.77,33.3 8,39.81 v -30 c 16.93,-6.35 33.34,6.74 49.71,1.28 0.295218,-0.08982 0.615371,-0.03832 0.867525,0.139552 C 58.82968,11.407429 58.985591,11.691756 59,12 Z"
         inkscape:connector-curvature="0"
         style="fill:#ffffff" />
      <path
         id="path443"
         d="m 8,6 v 50 c 0,1.104569 -0.8954305,2 -2,2 H 5 C 3.8954305,58 3,57.104569 3,56 V 6 Z"
         inkscape:connector-curvature="0"
         style="fill:#e8edfc" />
      <path
         id="path445"
         d="M 10,4.5 C 10.001343,6.7888012 8.2844467,8.713991 6.0104159,8.9735996 3.7363851,9.2332083 1.6297527,7.7445214 1.1151947,5.51431 0.60063667,3.2840986 1.8420973,1.0229343 4,0.26 5.3768693,-0.22679711 6.9043473,-0.01516342 8.0969986,0.8276435 9.2896499,1.6704504 9.9991431,3.0396097 10,4.5 Z"
         inkscape:connector-curvature="0"
         style="fill:#cad9fc" />
      <g
         id="g453"
         style="fill:#e8edfc">
        <path
           id="path447"
           d="M 4,8.74 C 2.2058924,8.1021405 1.0074482,6.4041236 1.0074482,4.5 1.0074482,2.5958764 2.2058924,0.89785949 4,0.26 5.7941076,0.89785949 6.9925518,2.5958764 6.9925518,4.5 6.9925518,6.4041236 5.7941076,8.1021405 4,8.74 Z"
           inkscape:connector-curvature="0" />
        <path
           id="path449"
           d="m 59,25.63 v 5 C 42,37.21 25,23.23 8,29.81 v -5 c 16.92,-6.54 34.19,7.37 51,0.82 z"
           inkscape:connector-curvature="0" />
        <path
           id="path451"
           d="m 59,15.63 v 5 C 50.37,24 41.93,22 33,20.11 v -5 C 41.89,17 50.45,19 59,15.63 Z"
           inkscape:connector-curvature="0" />
      </g>
      <path
         id="path455"
         d="m 33,10.11 v 15 C 24.43,23.25 16.23,21.63 8,24.81 v -15 c 8.21,-3.08 15.81,-1.7 25,0.3 z"
         inkscape:connector-curvature="0"
         style="fill:#285680" />
      <path
         id="path457"
         d="m 33,10.11 v 15 C 24.43,23.25 16.2,21.65 8,24.81 v -15 c 8.35,-3.13 16,-1.66 25,0.3 z"
         inkscape:connector-curvature="0"
         style="fill:#a4c2f7" />
      <path
         id="path459"
         d="m 59,35.63 v 4.29 c 0.0041,0.424691 -0.260584,0.805618 -0.66,0.95 C 41.5,46.85 24.77,33.3 8,39.81 v -5 c 17,-6.58 34.1,7.41 51,0.82 z"
         inkscape:connector-curvature="0"
         style="fill:#e8edfc" />
      <path
         id="path461"
         d="m 14.81,12.25 c 0.94,1.51 0.95,1.66 1.29,1.67 L 17.8,14 c 0.187827,0.01252 0.352702,0.129478 0.4266,0.30261 C 18.3005,14.475742 18.27089,14.675707 18.15,14.82 17,16.19 16.87,16.24 17,16.57 l 0.45,1.64 c 0.05628,0.183995 -3.41e-4,0.383897 -0.144742,0.511056 C 17.160857,18.848215 16.9554,18.879094 16.78,18.8 c -1.65,-0.67 -1.74,-0.78 -2,-0.59 l -1.41,0.93 c -0.158611,0.107963 -0.365014,0.115641 -0.531208,0.01976 C 12.672599,19.063879 12.57593,18.881352 12.59,18.69 12.72,16.91 12.8,16.79 12.53,16.57 L 11.2,15.52 C 11.04884,15.40052 10.979782,15.204815 11.022484,15.016928 11.065185,14.829041 11.212047,14.682408 11.4,14.64 c 1.73,-0.43 1.86,-0.39 2,-0.72 l 0.59,-1.58 c 0.081,-0.141648 0.224887,-0.235986 0.387084,-0.253788 0.162198,-0.0178 0.323121,0.04308 0.432916,0.163788 z"
         inkscape:connector-curvature="0"
         style="fill:#ffffff" />
      <path
         id="path463"
         d="m 26.07,12.6 c 0.63,1.67 0.61,1.81 0.95,1.89 l 1.65,0.4 c 0.183212,0.04514 0.32541,0.18957 0.367685,0.373463 0.04227,0.183894 -0.02258,0.375924 -0.167685,0.496537 -1.39,1.12 -1.53,1.15 -1.5,1.49 l 0.13,1.69 c 0.01531,0.189787 -0.0785,0.371799 -0.241953,0.469448 -0.163457,0.09765 -0.368188,0.09399 -0.528047,-0.0094 -1.5,-1 -1.57,-1.1 -1.89,-1 l -1.56,0.64 c -0.176205,0.0757 -0.380181,0.04394 -0.525034,-0.08174 C 22.610113,18.832578 22.549909,18.635119 22.6,18.45 c 0.46,-1.72 0.57,-1.83 0.34,-2.09 l -1.1,-1.29 c -0.12171,-0.145688 -0.150417,-0.347734 -0.0741,-0.521558 0.07631,-0.173823 0.24448,-0.289437 0.434104,-0.298442 1.78,-0.1 1.9,0 2.09,-0.33 l 0.88,-1.44 c 0.108985,-0.157388 0.296932,-0.240487 0.486691,-0.215186 0.18976,0.0253 0.349368,0.154741 0.413309,0.335186 z"
         inkscape:connector-curvature="0"
         style="fill:#ffffff" />
      <path
         id="path465"
         d="m 59,12 v 3.59 c -1.298257,0.506231 -2.636148,0.904254 -4,1.19 v -5 c 0.916584,-0.195286 1.821368,-0.442348 2.71,-0.74 0.30349,-0.09197 0.632613,-0.03453 0.887015,0.154792 C 58.851418,11.384115 59.000943,11.682883 59,12 Z"
         inkscape:connector-curvature="0"
         style="fill:#e8edfc" />
      <path
         id="path467"
         d="m 59,15.63 v 5 c -1.297388,0.50626 -2.635564,0.901022 -4,1.18 v -5 c 1.363557,-0.282495 2.701442,-0.677171 4,-1.18 z"
         inkscape:connector-curvature="0"
         style="fill:#cad9fc" />
      <path
         id="path469"
         d="m 59,20.63 v 5 c -1.297837,0.507455 -2.635831,0.905508 -4,1.19 v -5 c 1.36474,-0.282227 2.702922,-0.680337 4,-1.19 z"
         inkscape:connector-curvature="0"
         style="fill:#e8edfc" />
      <path
         id="path471"
         d="m 59,25.63 v 5 c -1.298257,0.506231 -2.636148,0.904254 -4,1.19 v -5 c 1.364169,-0.284492 2.702163,-0.682545 4,-1.19 z"
         inkscape:connector-curvature="0"
         style="fill:#cad9fc" />
      <path
         id="path473"
         d="m 59,30.63 v 5 c -1.297837,0.507455 -2.635831,0.905508 -4,1.19 v -5 c 1.363852,-0.285746 2.701743,-0.683769 4,-1.19 z"
         inkscape:connector-curvature="0"
         style="fill:#e8edfc" />
      <path
         id="path475"
         d="m 59,35.63 v 4.29 c 0.0041,0.424691 -0.260584,0.805618 -0.66,0.95 -1.093339,0.377779 -2.208754,0.688359 -3.34,0.93 v -5 c 1.363573,-0.27799 2.701554,-0.66935 4,-1.17 z"
         inkscape:connector-curvature="0"
         style="fill:#cad9fc" />
    </g>
    <path
       id="path478"
       d="M 3,9.24 V 57 c 0,1.104569 0.8954305,2 2,2 H 6 C 6.3521724,58.996342 6.6971344,58.899753 7,58.72 6.3849109,58.364895 6.0042869,57.710222 6,57 V 9.24 C 4.5817565,8.2917249 3.8199984,6.6243366 4.0316091,4.9314511 4.2432198,3.2385657 5.3919732,1.8099913 7,1.24 6.0305803,0.89025556 4.9694197,0.89025556 4,1.24 2.3919732,1.8099913 1.2432198,3.2385657 1.0316091,4.9314511 0.81999844,6.6243366 1.5817565,8.2917249 3,9.24 Z"
       inkscape:connector-curvature="0"
       style="fill:#ffffff" />
    <path
       id="Rectangle-path"
       d="m 2,9.24 h 2 v 8 H 2 Z"
       inkscape:connector-curvature="0"
       style="fill:#ffffff" />
    <g
       id="g489"
       style="fill:#428dff">
      <path
         id="path481"
         d="m 3,14.24 c 0.5522848,0 1,-0.447715 1,-1 0,-0.552285 -0.4477152,-1 -1,-1 -0.5522847,0 -1,0.447715 -1,1 0,0.552285 0.4477153,1 1,1 z"
         inkscape:connector-curvature="0" />
      <path
         id="path483"
         d="m 7,10.79 v 46.4 C 6.9077509,57.667108 6.4858642,58.008836 6,58 H 5.06 c -0.5086257,0.0037 -0.9389766,-0.375035 -1,-0.88 0,-0.11 0,0.52 0,-39.88 0,-0.552285 -0.4477152,-1 -1,-1 -0.5522847,0 -1,0.447715 -1,1 C 2,57.22 2,57 2,57.35 2.1783833,58.868866 3.4707302,60.010439 5,60 5.5823112,60.0408 6.1674622,60.0038 6.74,59.89 7.8819297,59.62468 8.7646855,58.718488 9,57.57 c 0.08,-0.45 0.05,0.26 0.05,-16 16.18,-5.76 32.8,7.29 49.67,1.3 0.800779,-0.30814 1.31579,-1.092727 1.28,-1.95 V 13 C 59.997498,12.364515 59.693137,11.768041 59.180049,11.393091 58.66696,11.018142 58.006217,10.909348 57.4,11.1 41.83,16.23 25.81,4.3 9.53,9.23 11.387392,7.2126502 11.471368,4.1341342 9.7267148,2.0185278 7.982062,-0.09707869 4.9438902,-0.60088916 2.6097496,0.83834382 0.27560889,2.2775768 -0.63858666,5.2184201 0.46823208,7.7273155 1.5750508,10.236211 4.3634068,11.543645 7,10.79 Z M 58,40.93 C 42,46.61 25.7,34 9,39.4 V 36.52 C 25,30.84 41.34,43.47 58,38 Z M 9,34.4 v -2.88 c 16,-5.68 32.35,7 49,1.52 v 2.88 C 42,41.6 25.67,29 9,34.4 Z m 25,-22 c 7.84,1.7 15.94,3.33 24,0.69 v 2.88 c -7.91,2.81 -15.74,1.18 -24,-0.62 z m 0,5 c 8.17,1.77 16,3.29 24,0.69 v 2.88 c -7.91,2.81 -15.74,1.18 -24,-0.62 z m 0,5 c 8.17,1.77 16,3.29 24,0.69 v 2.88 C 50.09,28.78 42.26,27.15 34,25.35 Z M 58,28 v 2.88 C 42,36.6 25.67,24 9,29.4 V 26.52 C 25.05,20.81 41.29,33.49 58,28 Z M 32,11.92 v 13 C 24.29,23.26 16.62,21.92 9,24.44 V 11.5 c 7.57,-2.69 15.12,-1.29 23,0.42 z M 5.5,2 C 7.4329966,2 9,3.5670034 9,5.5 9,7.4329966 7.4329966,9 5.5,9 3.5670034,9 2,7.4329966 2,5.5 2,3.5670034 3.5670034,2 5.5,2 Z"
         inkscape:connector-curvature="0" />
      <path
         id="path485"
         d="m 11.63,18.19 -0.1,1.43 c -0.0467,0.568332 0.237275,1.112939 0.73,1.4 0.230073,0.136522 0.492473,0.209027 0.76,0.21 0.294812,-0.0027 0.58274,-0.08943 0.83,-0.25 l 1.15,-0.79 1.33,0.54 c 0.529279,0.21167 1.132648,0.107241 1.56,-0.27 0.429438,-0.378216 0.604329,-0.968958 0.45,-1.52 L 18,17.56 18.92,16.47 c 0.371207,-0.436828 0.460987,-1.047027 0.231329,-1.572261 C 18.921672,14.372504 18.412742,14.02409 17.84,14 L 16.41,13.94 15.65,12.72 C 15.345873,12.244891 14.799511,11.982271 14.238522,12.041546 13.677533,12.10082 13.19812,12.471823 13,13 l -0.51,1.34 -1.39,0.34 C 10.545666,14.818235 10.117988,15.259363 9.9969773,15.81771 9.8759666,16.376057 10.082637,16.954667 10.53,17.31 Z m 1.58,-2 c 0.464425,-0.12341 0.838383,-0.467451 1,-0.92 l 0.24,-0.64 0.36,0.58 c 0.264542,0.417219 0.716443,0.67865 1.21,0.7 h 0.68 l -0.44,0.52 c -0.31887,0.379712 -0.431,0.891776 -0.3,1.37 l 0.18,0.65 -0.63,-0.25 c -0.457322,-0.19055 -0.979863,-0.137919 -1.39,0.14 l -0.57,0.37 0.05,-0.68 c 0.03914,-0.49347 -0.171017,-0.973835 -0.56,-1.28 l -0.53,-0.42 z"
         inkscape:connector-curvature="0" />
      <path
         id="path487"
         d="m 22,17.85 -0.37,1.38 c -0.14504,0.546889 0.02999,1.128859 0.452636,1.505015 0.422648,0.376156 1.020993,0.482489 1.547364,0.274985 l 1.37,-0.55 1.2,0.78 c 0.244528,0.157274 0.529261,0.240611 0.82,0.24 0.415898,-0.0017 0.812442,-0.175907 1.094933,-0.481149 C 28.397424,20.693609 28.540503,20.284781 28.51,19.87 l -0.11,-1.43 1.12,-0.9 c 0.447329,-0.359654 0.650198,-0.943047 0.522532,-1.50265 C 29.914866,15.477747 29.479051,15.040062 28.92,14.91 L 27.53,14.58 27,13.24 c -0.190646,-0.549396 -0.681664,-0.939093 -1.26,-1 -0.570964,-0.05871 -1.124388,0.218003 -1.42,0.71 l -0.75,1.21 -1.43,0.08 c -0.569145,0.03125 -1.071396,0.382387 -1.296186,0.906191 C 20.619023,15.669996 20.710541,16.275946 21.08,16.71 Z m 1.93,-1.65 c 0.491359,-0.02843 0.938541,-0.293009 1.2,-0.71 l 0.36,-0.58 0.24,0.63 c 0.174296,0.462844 0.568266,0.808037 1.05,0.92 l 0.66,0.16 -0.53,0.43 c -0.38237,0.310487 -0.587942,0.78891 -0.55,1.28 l 0.05,0.68 -0.57,-0.37 C 25.589764,18.478981 25.297531,18.395486 25,18.4 c -0.195573,-0.0033 -0.389687,0.03419 -0.57,0.11 l -0.63,0.26 0.18,-0.66 c 0.128347,-0.476696 0.01225,-0.986014 -0.31,-1.36 l -0.44,-0.52 z"
         inkscape:connector-curvature="0" />
    </g>
  </g>
  <path
     style="fill:#ff0000;fill-opacity:1;stroke-width:0.81448519"
     d="m 464.75369,352.39535 c -22.73147,-1.63076 -50.0694,-5.99248 -88.77889,-14.16452 -91.37893,-19.29121 -109.02151,-21.89243 -148.64355,-21.91595 -18.27453,-0.0109 -26.01634,0.31599 -34.20838,1.44419 -12.49735,1.72111 -27.11131,4.69923 -36.7117,7.48131 -3.78833,1.09782 -7.07539,1.99603 -7.30458,1.99603 -0.22919,0 -0.31528,-5.36972 -0.19131,-11.9327 l 0.22539,-11.9327 3.25794,-1.15148 c 6.5593,-2.3183 25.31321,-6.82673 34.92506,-8.39597 40.0339,-6.53596 81.15085,-3.18892 155.25724,12.63842 81.09801,17.32058 102.08998,20.58432 137.37549,21.35853 23.43966,0.5143 42.53416,-0.88144 59.11906,-4.32138 l 2.23984,-0.46458 v 12.18531 12.1853 l -3.46157,0.85933 c -16.52276,4.1018 -48.39744,5.90302 -73.10004,4.13086 z"
     id="path526"
     inkscape:connector-curvature="0"
     transform="scale(0.1171875)" />
  <path
     style="fill:#ff0000;fill-opacity:1;stroke-width:0.81448519"
     d="m 465.16093,267.75707 c -22.28281,-1.80804 -50.54674,-6.27992 -82.87387,-13.11218 l -20.15851,-4.26046 v -12.07209 c 0,-9.88548 0.20949,-12.07209 1.15657,-12.07209 0.63611,0 5.49248,0.94324 10.79193,2.09609 68.13601,14.82241 113.29628,18.36244 155.16612,12.16318 4.33551,-0.64192 8.82536,-1.4037 9.97744,-1.69286 l 2.09469,-0.52573 v 12.25069 c 0,13.77617 0.73799,12.37456 -7.33037,13.92182 -17.02663,3.26518 -49.86893,4.84165 -68.824,3.30363 z"
     id="path528"
     inkscape:connector-curvature="0"
     transform="scale(0.1171875)" />
  <path
     style="fill:#ff0000;fill-opacity:1;stroke-width:0.81448519"
     d="m 464.34645,437.92419 c -24.78204,-1.84524 -51.53282,-6.34707 -103.26489,-17.37822 -69.93831,-14.91339 -91.29783,-18.12432 -126.0127,-18.94326 -21.59538,-0.50945 -35.14312,0.29607 -52.12705,3.09937 -9.01158,1.48742 -28.86762,6.13535 -32.80535,7.67913 -1.35358,0.53067 -1.43299,-0.21696 -1.22173,-11.50265 l 0.22594,-12.07021 8.14485,-2.61759 c 31.27993,-10.05271 69.45121,-12.46814 113.62069,-7.18976 21.18408,2.53156 36.24158,5.37269 103.43962,19.51756 76.3804,16.07771 115.29037,18.58496 163.5079,10.53601 l 3.46157,-0.57784 v 12.28999 12.28998 l -3.05432,0.78911 c -15.93407,4.11673 -48.94045,5.93792 -73.91453,4.07838 z"
     id="path530"
     inkscape:connector-curvature="0"
     transform="scale(0.1171875)" />
  <path
     style="fill:#aa0000;fill-opacity:1;stroke-width:0.81448519"
     d="m 541.3153,250.70619 v -12.18588 l 3.46156,-0.84799 c 4.97687,-1.21921 19.5678,-5.11208 20.76937,-5.54129 0.78467,-0.28028 1.01811,2.36883 1.01811,11.55367 v 11.91733 l -2.23984,0.86191 c -2.92235,1.12456 -21.28802,6.42814 -22.25986,6.42814 -0.42275,0 -0.74934,-5.31113 -0.74934,-12.18589 z"
     id="path540"
     inkscape:connector-curvature="0"
     transform="scale(0.1171875)" />
  <path
     style="fill:#aa0000;fill-opacity:1;stroke-width:0.81448519"
     d="m 541.49759,335.33898 0.22495,-12.3013 10.58831,-2.76084 c 5.82357,-1.51847 11.41297,-2.99887 12.4209,-3.28979 l 1.83259,-0.52894 v 11.85697 c 0,6.52132 -0.28501,12.0331 -0.63335,12.24838 -0.65657,0.40579 -18.41553,5.59009 -22.39719,6.53832 l -2.26116,0.5385 z"
     id="path544"
     inkscape:connector-curvature="0"
     transform="scale(0.1171875)" />
  <path
     style="fill:#aa0000;fill-opacity:1;stroke-width:0.81448519"
     d="m 541.3153,420.69118 v -12.4283 l 6.7195,-1.50159 c 3.69573,-0.82587 9.38611,-2.34429 12.6453,-3.37425 l 5.92581,-1.87267 -0.22441,12.26423 -0.2244,12.26422 -4.47967,1.54755 c -4.6006,1.58932 -18.65921,5.52339 -19.75127,5.52706 -0.33597,10e-4 -0.61086,-5.59068 -0.61086,-12.42625 z"
     id="path546"
     inkscape:connector-curvature="0"
     transform="scale(0.1171875)" />
</svg>
