<svg id="Capa_1" enable-background="new 0 0 497 497" height="512" viewBox="0 0 497 497" width="512" xmlns="http://www.w3.org/2000/svg"><g><path d="m485.385 233.483-34.808-9.041c-1.252-10.63-3.315-21.011-6.141-31.074l28.663-21.647c5.639-4.259 7.688-11.79 4.984-18.318-2.704-6.529-9.479-10.405-16.477-9.429l-35.6 4.965c-5.195-9.242-11.081-18.042-17.605-26.319l18.22-31.005c3.58-6.093 2.591-13.834-2.406-18.831s-12.739-5.986-18.831-2.406l-31.005 18.22c-8.276-6.524-17.077-12.41-26.318-17.605l4.965-35.6c.976-6.999-2.9-13.773-9.429-16.477s-14.06-.655-18.318 4.984l-21.647 28.664c-10.063-2.826-20.444-4.889-31.074-6.141l-9.041-34.808c-1.777-6.84-7.95-11.615-15.017-11.615-7.066 0-13.24 4.775-15.017 11.615l-9.041 34.808c-10.63 1.252-21.01 3.315-31.074 6.141l-21.646-28.664c-4.259-5.639-11.79-7.688-18.318-4.984-6.529 2.704-10.405 9.478-9.429 16.477l4.965 35.6c-9.242 5.195-18.042 11.081-26.319 17.605l-31.005-18.22c-6.092-3.58-13.834-2.591-18.831 2.406s-5.986 12.739-2.406 18.831l18.22 31.005c-6.524 8.276-12.41 17.077-17.605 26.319l-35.6-4.965c-6.999-.976-13.773 2.9-16.477 9.429s-.655 14.06 4.984 18.318l28.663 21.647c-2.826 10.063-4.889 20.444-6.141 31.074l-34.808 9.041c-6.84 1.777-11.615 7.95-11.615 15.017s4.775 13.24 11.615 15.017l34.808 9.041c1.252 10.63 3.315 21.01 6.141 31.074l-28.664 21.646c-5.639 4.259-7.688 11.79-4.984 18.318 2.704 6.529 9.479 10.405 16.477 9.429l35.6-4.965c5.195 9.242 11.081 18.042 17.605 26.319l-18.22 31.005c-3.58 6.092-2.591 13.834 2.406 18.831s12.739 5.986 18.831 2.406l31.005-18.22c8.276 6.524 17.077 12.41 26.319 17.605l-4.965 35.6c-.976 6.999 2.9 13.773 9.429 16.477s14.06.655 18.318-4.984l21.647-28.664c10.063 2.826 20.444 4.889 31.074 6.141l9.041 34.808c1.776 6.84 7.95 11.615 15.017 11.615s13.24-4.775 15.017-11.615l9.041-34.808c10.63-1.252 21.01-3.315 31.074-6.141l21.647 28.664c4.259 5.639 11.79 7.688 18.318 4.984s10.405-9.478 9.429-16.477l-4.965-35.6c9.242-5.195 18.042-11.081 26.318-17.605l31.005 18.22c6.093 3.58 13.834 2.591 18.831-2.406s5.986-12.739 2.406-18.831l-18.22-31.005c6.524-8.276 12.41-17.077 17.605-26.319l35.6 4.965c6.999.976 13.773-2.9 16.477-9.429s.655-14.06-4.984-18.318l-28.663-21.647c2.826-10.063 4.889-20.444 6.141-31.074l34.808-9.041c6.84-1.777 11.615-7.95 11.615-15.017s-4.775-13.239-11.615-15.016zm-236.885 158.517c-79.253 0-143.5-64.247-143.5-143.5s64.247-143.5 143.5-143.5 143.5 64.247 143.5 143.5-64.247 143.5-143.5 143.5z" fill="#c0c8d2"/><path d="m248.5 75c79.253 0 128.5 173.5 128.5 173.5s-49.247 173.5-128.5 173.5c95.822 0 173.5-77.679 173.5-173.5s-77.679-173.5-173.5-173.5z" fill="#1b74d6"/><path d="m248.5 75c-95.821 0-173.5 77.679-173.5 173.5s77.679 173.5 173.5 173.5c79.253 0 143.5-77.679 143.5-173.5s-64.247-173.5-143.5-173.5z" fill="#1e8aff"/><path d="m248.5 135v227c62.684 0 113.5-50.816 113.5-113.5s-50.816-113.5-113.5-113.5z" fill="#dbebff"/><path d="m332 248.5c0-62.684-37.384-113.5-83.5-113.5-62.684 0-113.5 50.816-113.5 113.5s50.816 113.5 113.5 113.5c46.116 0 83.5-50.816 83.5-113.5z" fill="#fff"/><path d="m332 241h-83.5v15h83.5c4.142 0 7.5-3.358 7.5-7.5s-3.358-7.5-7.5-7.5z" fill="#1e8aff"/><path d="m248.5 165c-8.284 0-15 6.716-15 15v66.734h30v-66.734c0-8.284-6.716-15-15-15z" fill="#8c98a7"/><path d="m179.072 294.89c4.735 6.798 14.084 8.469 20.882 3.734l54.758-38.145-17.148-24.616-54.757 38.145c-6.798 4.735-8.47 14.085-3.735 20.882z" fill="#8c98a7"/><circle cx="248.5" cy="248.5" fill="#c0c8d2" r="22.5"/></g></svg>