<svg height="512" viewBox="0 0 512 512" width="512" xmlns="http://www.w3.org/2000/svg"><g id="Flat"><circle cx="256" cy="200" fill="#104f91" r="176"/><path d="m440 464a24.00619 24.00619 0 0 1 -24 24h-320a24 24 0 0 1 0-48h104a32.00409 32.00409 0 0 0 32-32l.01-39.5 31.99-.33008 16-.16992v40a31.98365 31.98365 0 0 0 32 32h104a24.00619 24.00619 0 0 1 24 24z" fill="#2b7cd4"/><path d="m312 440h-16a31.98365 31.98365 0 0 1 -32-32v-39.83008l16-.16992v40a31.98365 31.98365 0 0 0 32 32z" fill="#104f91"/><path d="m440 464a24.00619 24.00619 0 0 1 -24 24h-16a24 24 0 0 0 0-48h16a24.00619 24.00619 0 0 1 24 24z" fill="#104f91"/><path d="m406.28706 200a23.83246 23.83246 0 0 1 23.584 27.45511 176.04868 176.04868 0 0 1 -273.83106 117.42489 160.07734 160.07734 0 0 0 226.60981-124.154 23.81611 23.81611 0 0 1 23.63719-20.726z" fill="#2b7cd4"/><circle cx="216" cy="200" fill="#2b7cd4" r="136"/><circle cx="183.862" cy="200" fill="#e6e6e6" r="104.138"/><circle cx="176" cy="200" fill="#104f91" r="64"/><g fill="#808080"><circle cx="304" cy="200" r="16"/><circle cx="288" cy="272" r="16"/><circle cx="288" cy="136" r="16"/></g><circle cx="192" cy="200" fill="#2b7cd4" r="48"/><path d="m312 440h-64v-16h36.28027a32.00036 32.00036 0 0 0 27.71973 16z" fill="#104f91"/><circle cx="216" cy="200" fill="#3ea7ff" r="16"/></g></svg>